<svg xmlns="http://www.w3.org/2000/svg" xmlns:xlink="http://www.w3.org/1999/xlink" width="125.873" height="24.32" viewBox="0 0 125.873 24.32"><defs><clipPath id="clip-path"><rect id="Rectangle_2" data-name="Rectangle 2" width="125.873" height="24.32" fill="#fff"></rect></clipPath></defs><g id="Group_2" data-name="Group 2" transform="translate(0 0.002)"><g id="Group_1" data-name="Group 1" transform="translate(0 -0.002)" clip-path="url(#clip-path)"><path id="Path_1" data-name="Path 1" d="M2261.469,28.516H2258.4a5.626,5.626,0,0,1-4.958-2.967l-3.452-6.446a33.457,33.457,0,0,0-3.868,9.367h-5.595V4.791h5.586v9.994a67.466,67.466,0,0,1,7.526-9.994h7.637a69.379,69.379,0,0,0-7.875,9.024Z" transform="translate(-2187.931 -4.678)" fill="#fff"></path><path id="Path_2" data-name="Path 2" d="M3294.192,28.528V4.8h5.584V22.944A5.229,5.229,0,0,1,3294.192,28.528Z" transform="translate(-3216.861 -4.692)" fill="#fff"></path><path id="Path_3" data-name="Path 3" d="M14.779,13.093H4.465A4.465,4.465,0,0,1,0,8.627H0A4.465,4.465,0,0,1,4.465,4.162H23.71a8.931,8.931,0,0,1-8.931,8.931" transform="translate(0 -4.064)" fill="#fff"></path><path id="Path_4" data-name="Path 4" d="M19.245,642.664H0a8.931,8.931,0,0,1,8.931-8.931H19.245a4.465,4.465,0,0,1,0,8.931" transform="translate(0 -618.856)" fill="#fff"></path><path id="Path_5" data-name="Path 5" d="M1205.473,14.97V0h5.589V14.732c0,2.71,1.66,4.437,4.268,4.437,2.642,0,4.268-1.693,4.268-4.437V0h5.589V14.97c0,5.792-3.929,9.348-9.857,9.348-5.961,0-9.856-3.523-9.856-9.348" transform="translate(-1177.175 0.002)" fill="#fff"></path><path id="Path_6" data-name="Path 6" d="M3676.034,28.515h-11.868a5.057,5.057,0,0,1,5.057-5.058h6.583a2.137,2.137,0,0,0,0-4.273h-3.835a7.189,7.189,0,0,1-7.189-7.19h0a7.189,7.189,0,0,1,7.189-7.19h9.581V9.863H3672.2a1.9,1.9,0,0,0-1.9,1.9h0a1.9,1.9,0,0,0,1.9,1.9h3.834a7.423,7.423,0,0,1,7.423,7.423h0a7.423,7.423,0,0,1-7.423,7.423" transform="translate(-3578.15 -4.692)" fill="#fff"></path><path id="Path_7" data-name="Path 7" d="M4552.05,28.515h-11.869a5.057,5.057,0,0,1,5.057-5.058h6.582a2.137,2.137,0,1,0,0-4.273h-3.834a7.19,7.19,0,0,1-7.19-7.19h0a7.19,7.19,0,0,1,7.19-7.19h9.581V9.863h-9.352a1.9,1.9,0,0,0-1.9,1.9h0a1.9,1.9,0,0,0,1.9,1.9h3.835a7.423,7.423,0,0,1,7.423,7.423h0a7.423,7.423,0,0,1-7.423,7.423" transform="translate(-4433.601 -4.692)" fill="#fff"></path></g></g></svg>